<?xml version="1.0" encoding="UTF-8"?>
<svg width="512" height="512" viewBox="0 0 512 512" fill="none" xmlns="http://www.w3.org/2000/svg">
  <rect width="512" height="512" rx="128" fill="#3b82f6"/>
  <circle cx="256" cy="256" r="160" fill="#ffffff"/>
  <path d="M256 180c-7.2 0-13 5.8-13 13v30h-30c-7.2 0-13 5.8-13 13s5.8 13 13 13h30v30c0 7.2 5.8 13 13 13s13-5.8 13-13v-30h30c7.2 0 13-5.8 13-13s-5.8-13-13-13h-30v-30c0-7.2-5.8-13-13-13z" fill="#3b82f6"/>
  <path d="M256 150c-58.6 0-106 47.4-106 106s47.4 106 106 106 106-47.4 106-106-47.4-106-106-106zm0 186c-44.2 0-80-35.8-80-80s35.8-80 80-80 80 35.8 80 80-35.8 80-80 80z" fill="#3b82f6"/>
</svg> 